<?xml version="1.0" encoding="UTF-8" standalone="no"?>
<svg xmlns:ffdec="https://www.free-decompiler.com/flash" xmlns:xlink="http://www.w3.org/1999/xlink" ffdec:objectType="frame" height="2110.25px" width="1468.2px" xmlns="http://www.w3.org/2000/svg">
  <g transform="matrix(1.0, 0.0, 0.0, 1.0, 752.0, 885.95)">
    <use ffdec:characterId="13" height="400.0" transform="matrix(1.0, 0.0, 0.0, 0.9996, -275.0, -199.9237)" width="550.0" xlink:href="#shape0"/>
    <use ffdec:characterId="2890" height="14.0" transform="matrix(1.0, 0.0, 0.0, 1.0, -156.2, -29.0)" width="42.0" xlink:href="#text0"/>
    <use ffdec:characterId="2187" height="16.0" transform="matrix(1.0, 0.0, 0.0, 1.0, 238.95, 77.0)" width="30.0" xlink:href="#sprite0"/>
  </g>
  <defs>
    <g id="shape0" transform="matrix(1.0, 0.0, 0.0, 1.0, 275.0, 200.0)">
      <path d="M-275.0 -200.0 L275.0 -200.0 275.0 200.0 -275.0 200.0 -275.0 -200.0" fill="#000000" fill-rule="evenodd" stroke="none"/>
    </g>
    <g id="text0" transform="matrix(1.0, 0.0, 0.0, 1.0, -1.0, -6.0)">
      <g transform="matrix(1.0, 0.0, 0.0, 1.0, 0.0, 0.0)">
        <use fill="#83d62a" height="14.0" transform="matrix(0.0176, 0.0, 0.0, 0.0176, 0.0, 18.0)" width="42.0" xlink:href="#font_FFF_Idea_16pt_st_.0"/>
        <use fill="#83d62a" height="14.0" transform="matrix(0.0176, 0.0, 0.0, 0.0176, 6.0, 18.0)" width="42.0" xlink:href="#font_FFF_Idea_16pt_st_.0"/>
        <use fill="#83d62a" height="14.0" transform="matrix(0.0176, 0.0, 0.0, 0.0176, 12.0, 18.0)" width="42.0" xlink:href="#font_FFF_Idea_16pt_st_.0"/>
        <use fill="#83d62a" height="14.0" transform="matrix(0.0176, 0.0, 0.0, 0.0176, 18.0, 18.0)" width="42.0" xlink:href="#font_FFF_Idea_16pt_st_B0"/>
        <use fill="#83d62a" height="14.0" transform="matrix(0.0176, 0.0, 0.0, 0.0176, 32.0, 18.0)" width="42.0" xlink:href="#font_FFF_Idea_16pt_st_U0"/>
      </g>
    </g>
    <g id="font_FFF_Idea_16pt_st_.0">
      <path d="M170.65 -56.9 L170.65 56.9 56.9 56.9 56.9 -56.9 170.65 -56.9" fill-rule="evenodd" stroke="none"/>
    </g>
    <g id="font_FFF_Idea_16pt_st_B0">
      <path d="M398.2 -398.2 L398.2 -512.0 170.65 -512.0 170.65 -398.2 398.2 -398.2 M170.65 -56.9 L512.0 -56.9 512.0 -284.45 170.65 -284.45 170.65 -56.9 M625.8 -398.2 L625.8 56.9 56.9 56.9 56.9 -625.8 512.0 -625.8 512.0 -398.2 625.8 -398.2" fill-rule="evenodd" stroke="none"/>
    </g>
    <g id="font_FFF_Idea_16pt_st_U0">
      <path d="M625.8 -625.8 L625.8 56.9 56.9 56.9 56.9 -625.8 170.65 -625.8 170.65 -56.9 512.0 -56.9 512.0 -625.8 625.8 -625.8" fill-rule="evenodd" stroke="none"/>
    </g>
    <g id="sprite0" transform="matrix(1.0, 0.0, 0.0, 1.0, 15.1, 7.5)">
      <use ffdec:characterId="2184" height="16.0" transform="matrix(1.0, 0.0, 0.0, 1.0, -15.1, -7.5)" width="30.0" xlink:href="#sprite1"/>
      <use ffdec:characterId="2185" height="8.0" transform="matrix(1.0, 0.0, 0.0, 1.0, -11.0, -3.0)" width="22.0" xlink:href="#text1"/>
    </g>
    <g id="sprite1" transform="matrix(1.0, 0.0, 0.0, 1.0, 15.0, 8.0)">
      <use ffdec:characterId="68" height="32.0" transform="matrix(0.9375, 0.0, 0.0, 0.5, -15.0, -8.0)" width="32.0" xlink:href="#shape1"/>
    </g>
    <g id="shape1" transform="matrix(1.0, 0.0, 0.0, 1.0, 0.0, 0.0)">
      <path d="M32.0 32.0 L0.0 32.0 0.0 0.0 32.0 0.0 32.0 32.0" fill="#83d62a" fill-opacity="0.0" fill-rule="evenodd" stroke="none"/>
    </g>
    <g id="text1" transform="matrix(1.0, 0.0, 0.0, 1.0, -61.0, -3.0)">
      <g transform="matrix(1.0, 0.0, 0.0, 1.0, 60.0, 0.0)">
        <use fill="#333333" height="8.0" transform="matrix(0.0088, 0.0, 0.0, 0.0088, 0.0, 9.0)" width="22.0" xlink:href="#font_FFF_Idea_8pt_st_S0"/>
        <use fill="#333333" height="8.0" transform="matrix(0.0088, 0.0, 0.0, 0.0088, 7.0, 9.0)" width="22.0" xlink:href="#font_FFF_Idea_8pt_st_K0"/>
        <use fill="#333333" height="8.0" transform="matrix(0.0088, 0.0, 0.0, 0.0088, 14.0, 9.0)" width="22.0" xlink:href="#font_FFF_Idea_8pt_st_I0"/>
        <use fill="#333333" height="8.0" transform="matrix(0.0088, 0.0, 0.0, 0.0088, 17.0, 9.0)" width="22.0" xlink:href="#font_FFF_Idea_8pt_st_P0"/>
      </g>
    </g>
    <g id="font_FFF_Idea_8pt_st_S0">
      <path d="M682.65 -455.1 L227.55 -455.1 227.55 -341.35 682.65 -341.35 682.65 113.8 113.8 113.8 113.8 0.0 568.9 0.0 568.9 -227.55 113.8 -227.55 113.8 -568.9 682.65 -568.9 682.65 -455.1" fill-rule="evenodd" stroke="none"/>
    </g>
    <g id="font_FFF_Idea_8pt_st_K0">
      <path d="M682.65 -227.55 L682.65 113.8 568.9 113.8 568.9 -227.55 682.65 -227.55 M227.55 -568.9 L227.55 -341.35 568.9 -341.35 568.9 -227.55 227.55 -227.55 227.55 113.8 113.8 113.8 113.8 -568.9 227.55 -568.9 M682.65 -568.9 L682.65 -341.35 568.9 -341.35 568.9 -568.9 682.65 -568.9" fill-rule="evenodd" stroke="none"/>
    </g>
    <g id="font_FFF_Idea_8pt_st_I0">
      <path d="M227.55 -568.9 L227.55 113.8 113.8 113.8 113.8 -568.9 227.55 -568.9" fill-rule="evenodd" stroke="none"/>
    </g>
    <g id="font_FFF_Idea_8pt_st_P0">
      <path d="M568.9 -341.35 L568.9 -455.1 227.55 -455.1 227.55 -341.35 568.9 -341.35 M682.65 -227.55 L227.55 -227.55 227.55 113.8 113.8 113.8 113.8 -568.9 682.65 -568.9 682.65 -227.55" fill-rule="evenodd" stroke="none"/>
    </g>
  </defs>
</svg>
